<?xml version="1.0" encoding="UTF-8"?>
<svg xmlns="http://www.w3.org/2000/svg" width="495" height="195" viewBox="0 0 495 195" fill="none" role="img" aria-labelledby="card-title">
  <title id="card-title">skillsaw report card for skillsaw: grade A+</title>
  <style>
    .title { font: 600 16px 'Segoe UI', Ubuntu, 'Helvetica Neue', Helvetica, Arial, sans-serif; fill: #e6edf3; }
    .subtitle { font: 400 11px 'Segoe UI', Ubuntu, 'Helvetica Neue', Helvetica, Arial, sans-serif; fill: #8b949e; }
    .label { font: 600 13px 'Segoe UI', Ubuntu, 'Helvetica Neue', Helvetica, Arial, sans-serif; fill: #c9d1d9; }
    .value { font: 400 13px 'Segoe UI', Ubuntu, 'Helvetica Neue', Helvetica, Arial, sans-serif; fill: #c9d1d9; }
    .rule { font: 400 11.5px 'Segoe UI', Ubuntu, 'Helvetica Neue', Helvetica, Arial, sans-serif; fill: #8b949e; }
    .grade-letter { font: 800 44px 'Segoe UI', Ubuntu, 'Helvetica Neue', Helvetica, Arial, sans-serif; fill: #44cc11; }
  </style>
  <rect x="0.5" y="0.5" width="494" height="194" rx="4.5" fill="#0d1117" stroke="#30363d"/>
  <g transform="translate(24, 17)">
    <path fill-rule="evenodd" fill="#44cc11" d="M20.0 12.0L22.3 15.8L19.3 15.3L17.7 17.7L16.6 22.0L14.8 19.5L12.0 20.0L8.2 22.3L8.7 19.3L6.3 17.7L2.0 16.6L4.5 14.8L4.0 12.0L1.7 8.2L4.7 8.7L6.3 6.3L7.4 2.0L9.2 4.5L12.0 4.0L15.8 1.7L15.3 4.7L17.7 6.3L22.0 7.4L19.5 9.2ZM15.0 12.0A3.0 3.0 0 1 0 9.0 12.0A3.0 3.0 0 1 0 15.0 12.0Z"/>
  </g>
  <text x="56" y="30" class="title" data-testid="repo-name">skillsaw</text>
  <text x="56" y="46" class="subtitle">skillsaw report card</text>
  <g data-testid="stats">
    <text x="24" y="76"><tspan class="label">Violation density</tspan><tspan x="180" class="value"><tspan data-testid="density">0.04</tspan> per 10k tokens</tspan></text>
    <text x="24" y="97"><tspan class="label">Content tokens</tspan><tspan x="180" class="value">~<tspan data-testid="tokens">27,049</tspan></tspan></text>
    <text x="24" y="118"><tspan class="label">Building blocks</tspan><tspan x="180" class="value"><tspan data-testid="plugins">1</tspan> plugin &#183; <tspan data-testid="skills">10</tspan> skills</tspan></text>
    <text x="24" y="139" class="label">Top rules</text>
    <text x="24" y="154" class="rule" data-testid="rule-0">1. content-actionability-score (1)</text>
  </g>
  <g transform="translate(415.5, 97.5)">
    <circle r="46" fill="none" stroke="#44cc11" stroke-opacity="0.25" stroke-width="7"/>
    <circle r="46" fill="none" stroke="#44cc11" stroke-width="7" stroke-linecap="round" transform="rotate(-90)" stroke-dasharray="289.03 289.03"/>
    <text y="16" text-anchor="middle" class="grade-letter" data-testid="grade-letter">A+</text>
  </g>
</svg>
